<?xml version="1.0" encoding="UTF-8" standalone="no"?>
<!-- Created with Inkscape (http://www.inkscape.org/) -->

<svg
   xmlns:dc="http://purl.org/dc/elements/1.1/"
   xmlns:cc="http://creativecommons.org/ns#"
   xmlns:rdf="http://www.w3.org/1999/02/22-rdf-syntax-ns#"
   xmlns:svg="http://www.w3.org/2000/svg"
   xmlns="http://www.w3.org/2000/svg"
   xmlns:sodipodi="http://sodipodi.sourceforge.net/DTD/sodipodi-0.dtd"
   xmlns:inkscape="http://www.inkscape.org/namespaces/inkscape"
   width="1554.8483"
   height="1554.8483"
   id="svg2"
   version="1.1"
   inkscape:version="0.91pre2 r13516"
   sodipodi:docname="BPAv1.1.svg"
   inkscape:export-filename="C:\Users\Kristóf\Dropbox\BPA\Logo\BPA_logo_blue.png"
   inkscape:export-xdpi="90.008781"
   inkscape:export-ydpi="90.008781">
  <defs
     id="defs4">
    <inkscape:path-effect
       effect="spiro"
       id="path-effect3862"
       is_visible="true" />
  </defs>
  <sodipodi:namedview
     id="base"
     pagecolor="#ffffff"
     bordercolor="#666666"
     borderopacity="1.0"
     inkscape:pageopacity="0"
     inkscape:pageshadow="2"
     inkscape:zoom="0.1767767"
     inkscape:cx="231.23427"
     inkscape:cy="722.95067"
     inkscape:document-units="px"
     inkscape:current-layer="g3340"
     showgrid="false"
     width="1920px"
     showguides="true"
     inkscape:guide-bbox="true"
     inkscape:window-width="1440"
     inkscape:window-height="837"
     inkscape:window-x="1016"
     inkscape:window-y="-8"
     inkscape:window-maximized="1"
     fit-margin-top="0"
     fit-margin-left="0"
     fit-margin-right="0"
     fit-margin-bottom="0" />
  <metadata
     id="metadata7">
    <rdf:RDF>
      <cc:Work
         rdf:about="">
        <dc:format>image/svg+xml</dc:format>
        <dc:type
           rdf:resource="http://purl.org/dc/dcmitype/StillImage" />
        <dc:title></dc:title>
      </cc:Work>
    </rdf:RDF>
  </metadata>
  <g
     inkscape:label="1. réteg"
     inkscape:groupmode="layer"
     id="layer1"
     transform="translate(-25.087989,773.31786)">
    <g
       id="g3340"
       transform="matrix(0.99666913,0.08155143,-0.08155143,0.99666913,39.555475,-63.734377)">
      <g
         id="g6450"
         transform="translate(-34.759617,-424.80968)">
        <path
           style="fill:#0080c8;fill-opacity:1;stroke:none"
           d="m 1462.9408,405.10909 c -43.1457,65.16254 -92.1703,123.22656 -146.463,177.464 -47.8601,47.80435 -96.1633,84.2954 -155.281,117.23721 C 933.65455,826.47519 714.65293,766.69203 479.06946,710.79088 164.3481,612.40922 76.337053,683.78307 42.341562,694.87456 110.27704,639.41698 262.11969,610.96729 406.97461,610.52366 c 158.77491,-0.88731 396.5212,67.04819 515.75459,66.32719 172.2512,1.99648 325.8684,-54.57017 448.9841,-177.68586 44.803,-46.16149 100.5029,-114.02042 132.6543,-170.97546 -11.8119,24.87278 -24.2661,48.48507 -41.4268,76.91956 z"
           id="path3845"
           inkscape:connector-curvature="0"
           sodipodi:nodetypes="cccccccccc" />
        <path
           inkscape:connector-curvature="0"
           id="path3851"
           style="fill:#0080c8;fill-opacity:1;stroke:none;stroke-width:5.54575014"
           d="m 1086.4954,249.49536 c 0,0 -66.7154,145.90865 -82.6316,184.06342 -8.31867,19.57646 -19.41026,45.03151 -15.97181,82.13252 -17.69105,7.26497 -33.93998,13.86444 -53.01746,14.91809 -72.98203,6.43308 -25.28872,-49.24623 -9.70511,-80.80157 0,0 158.71938,-308.12191 175.35678,-332.35679 98.9916,-33.052689 121.1191,-47.915288 126.7201,60.28232 4.936,72.09476 1.7193,176.7985 23.6252,244.23484 8.5402,26.17593 19.7429,42.25863 32.3317,66.1053 -29.3924,12.42252 -73.9802,35.21554 -104.1493,12.75525 -24.9003,-18.52278 -26.8412,-61.946 -29.836,-90.1739 0,0 -15.9164,-259.59662 -15.9164,-259.59662 -12.3116,25.78785 -32.3872,67.21459 -46.8061,98.43714 z m -52.851,74.86763 c 175.8002,-28.00604 312.3921,11.64606 454.7514,117.51437 31.7772,23.62494 68.9338,52.90653 100.3226,85.95914 C 1435.1012,442.98652 1246.3241,382.92607 1094.6478,382.92607 953.56375,380.1532 837.49129,399.23058 767.11578,413.7604 861.06067,368.72894 933.15547,350.37253 1033.6444,324.36299 Z" />
        <path
           id="path3847"
           style="fill:#0080c8;fill-opacity:1;stroke:none"
           d="m 860.72801,244.28236 c 1.82997,-15.63905 0.77632,-35.32645 -7.04331,-49.30174 -13.53153,-24.01305 -50.32944,-30.0909 -89.59327,-18.55571 -5.28808,35.02491 -14.13378,94.27687 -24.24,161.14822 58.45205,-4.93573 113.11229,-28.4055 120.87658,-93.29077 z M 845.0888,125.10414 c 56.51129,-3.5493 113.35522,16.08265 116.23893,80.35795 3.71577,82.90897 -74.47926,132.15523 -143.96769,156.94472 -17.35806,6.21124 -56.60647,16.35996 -84.33511,20.85198 -5.62974,32.58566 -21.03392,143.52405 -5.17314,154.9483 -25.23312,10.31507 -90.78393,37.10109 -109.80585,3.99298 -9.92688,-17.2473 10.53691,-87.56743 15.1399,-109.36226 14.97353,-70.87467 48.3035,-259.92927 17.80188,-260.65018 66.43814,-37.65572 151.26446,-44.36013 194.10108,-47.08349 z"
           inkscape:connector-curvature="0"
           sodipodi:nodetypes="cccccccccccccc" />
        <path
           id="A vonal"
           style="fill:#0080c8;fill-opacity:1;stroke:none"
           d="m 418.06615,527.67017 c 46.47343,-12.53339 104.87022,-117.51444 1.4974,-158.3312 -18.13464,6.54402 -8.97889,2.37061 -50.84929,17.01138 -3.61,23.80538 -16.29128,108.16331 -21.00603,140.1411 22.23846,1.27556 43.12834,7.66725 70.35792,1.17872 z M 434.70341,322.4774 c 35.93653,-19.9092 63.94259,-63.16606 45.80797,-105.31377 -14.86261,-34.71639 -55.77709,-22.41891 -84.50405,-12.82478 -2.49476,17.07388 -19.94892,134.22123 -19.94892,134.22123 22.57123,-2.05193 38.45848,-4.93572 58.645,-16.08268 z m 55.45755,-171.97374 c 46.08518,2.82837 88.56562,18.80016 88.56562,71.59569 0,17.69086 -2.38469,29.05975 -11.75698,44.36601 -28.93949,42.93293 -54.22909,52.75767 -94.44411,76.14313 99.32437,8.54048 132.54342,92.5585 70.48646,161.38133 -56.28936,62.50059 -124.89034,69.82097 -202.58631,73.25935 -41.87035,0.27745 -72.982,18.91097 -88.62103,-3.05019 -12.47796,-17.52457 9.42779,-102.98452 14.03075,-125.72215 8.04133,-40.37304 49.35713,-232.92145 19.13282,-251.05605 64.2795,-23.14885 145.28878,-50.17513 205.19278,-46.91712 z"
           inkscape:connector-curvature="0"
           sodipodi:nodetypes="cccccccccccscccccccc" />
      </g>
      <path
         transform="translate(0,-147.6378)"
         inkscape:connector-curvature="0"
         id="path3049"
         d=""
         style="fill:#d5f6ff;fill-opacity:1;fill-rule:nonzero;stroke:#000000;stroke-width:4.18300676;stroke-linecap:butt;stroke-linejoin:round;stroke-miterlimit:4;stroke-dasharray:none;stroke-opacity:1" />
    </g>
  </g>
</svg>
